<svg width="19" height="18" viewBox="0 0 19 18" fill="none" xmlns="http://www.w3.org/2000/svg">
<path d="M8.41365 10.825L5.95559 8.375C5.8051 8.225 5.62534 8.15417 5.41632 8.1625C5.20731 8.17083 5.02755 8.25 4.87706 8.4C4.72656 8.55 4.65132 8.72917 4.65132 8.9375C4.65132 9.14583 4.72656 9.325 4.87706 9.475L7.88692 12.45C8.03742 12.6 8.21299 12.675 8.41365 12.675C8.61431 12.675 8.78988 12.6 8.94038 12.45L15.1357 6.275C15.2862 6.125 15.3614 5.94583 15.3614 5.7375C15.3614 5.52917 15.2862 5.35 15.1357 5.2C14.9852 5.05 14.8054 4.975 14.5964 4.975C14.3874 4.975 14.2076 5.05 14.0572 5.2L8.41365 10.825ZM2.419 18C2.01768 18 1.66653 17.85 1.36554 17.55C1.06456 17.25 0.914062 16.9 0.914062 16.5V1.5C0.914062 1.1 1.06456 0.75 1.36554 0.45C1.66653 0.15 2.01768 0 2.419 0H17.4683C17.8697 0 18.2208 0.15 18.5218 0.45C18.8228 0.75 18.9733 1.1 18.9733 1.5V16.5C18.9733 16.9 18.8228 17.25 18.5218 17.55C18.2208 17.85 17.8697 18 17.4683 18H2.419ZM2.419 16.5H17.4683V1.5H2.419V16.5Z" fill="#1976D2"/>
</svg>
