<svg width="19" height="23" viewBox="0 0 19 23" fill="none" xmlns="http://www.w3.org/2000/svg">
<g clip-path="url(#clip0_1129_1131)">
<path d="M7.31934 0.625L7.03613 0.879883L6.38477 1.53125H0.4375V3.34375H1.34375V19.6562C1.34375 21.1466 2.57214 22.375 4.0625 22.375H14.9375C16.4279 22.375 17.6562 21.1466 17.6562 19.6562V3.34375H18.5625V1.53125H12.6152L11.9639 0.879883L11.6807 0.625H7.31934ZM8.08398 2.4375H10.916L11.5674 3.08887L11.8506 3.34375H15.8438V19.6562C15.8438 20.1589 15.4402 20.5625 14.9375 20.5625H4.0625C3.55981 20.5625 3.15625 20.1589 3.15625 19.6562V3.34375H7.14941L7.43262 3.08887L8.08398 2.4375ZM4.96875 6.96875V16.9375H6.78125V6.96875H4.96875ZM8.59375 6.96875V16.9375H10.4062V6.96875H8.59375ZM12.2188 6.96875V16.9375H14.0312V6.96875H12.2188Z" fill="#1976D2"/>
</g>
<defs>
<clipPath id="clip0_1129_1131">
<rect width="19" height="23" fill="white"/>
</clipPath>
</defs>
</svg>
