<svg width="100" height="100" viewBox="0 0 100 100" fill="none" xmlns="http://www.w3.org/2000/svg">
<rect width="100" height="100" rx="4" fill="url(#paint0_linear_1151_1156)"/>
<path d="M22.415 69.8334V63.8605C22.415 62.3779 22.7963 61.0329 23.5588 59.8256C24.3213 58.6183 25.3803 57.7181 26.7359 57.1251C29.8282 55.7695 32.6135 54.7952 35.0916 54.2022C37.5697 53.6091 40.122 53.3126 42.7484 53.3126C45.3748 53.3126 47.9164 53.6091 50.3734 54.2022C52.8303 54.7952 55.605 55.7695 58.6973 57.1251C60.0529 57.7181 61.1225 58.6183 61.9062 59.8256C62.6899 61.0329 63.0817 62.3779 63.0817 63.8605V69.8334H22.415ZM66.8942 69.8334V63.8605C66.8942 61.1917 66.2164 58.9996 64.8609 57.2839C63.5053 55.5683 61.7262 54.181 59.5234 53.1219C62.4463 53.4608 65.1998 53.9586 67.7838 54.6152C70.3678 55.2718 72.4647 56.0237 74.0744 56.8709C75.4723 57.6758 76.5737 58.6713 77.3786 59.8574C78.1834 61.0435 78.5859 62.3779 78.5859 63.8605V69.8334H66.8942ZM42.7484 49.4365C39.9525 49.4365 37.665 48.5469 35.8859 46.7678C34.1067 44.9886 33.2171 42.7011 33.2171 39.9053C33.2171 37.1094 34.1067 34.8219 35.8859 33.0428C37.665 31.2636 39.9525 30.374 42.7484 30.374C45.5442 30.374 47.8317 31.2636 49.6109 33.0428C51.39 34.8219 52.2796 37.1094 52.2796 39.9053C52.2796 42.7011 51.39 44.9886 49.6109 46.7678C47.8317 48.5469 45.5442 49.4365 42.7484 49.4365ZM65.6234 39.9053C65.6234 42.7011 64.7338 44.9886 62.9546 46.7678C61.1755 48.5469 58.888 49.4365 56.0921 49.4365C55.6262 49.4365 55.1072 49.4048 54.5354 49.3412C53.9635 49.2777 53.4446 49.1612 52.9786 48.9917C53.9952 47.9327 54.7683 46.6301 55.2979 45.0839C55.8274 43.5377 56.0921 41.8115 56.0921 39.9053C56.0921 37.999 55.8274 36.3152 55.2979 34.8537C54.7683 33.3923 53.9952 32.0473 52.9786 30.8188C53.4446 30.6917 53.9635 30.5858 54.5354 30.5011C55.1072 30.4164 55.6262 30.374 56.0921 30.374C58.888 30.374 61.1755 31.2636 62.9546 33.0428C64.7338 34.8219 65.6234 37.1094 65.6234 39.9053ZM26.2275 66.0209H59.2692V63.8605C59.2692 63.1827 59.068 62.5261 58.6656 61.8907C58.2631 61.2553 57.7654 60.8105 57.1723 60.5563C54.1223 59.2008 51.5595 58.29 49.4838 57.824C47.4081 57.3581 45.163 57.1251 42.7484 57.1251C40.3338 57.1251 38.0781 57.3581 35.9812 57.824C33.8843 58.29 31.3109 59.2008 28.2609 60.5563C27.6678 60.8105 27.1807 61.2553 26.7994 61.8907C26.4182 62.5261 26.2275 63.1827 26.2275 63.8605V66.0209ZM42.7484 45.624C44.4005 45.624 45.7666 45.0839 46.8468 44.0037C47.927 42.9235 48.4671 41.5574 48.4671 39.9053C48.4671 38.2532 47.927 36.887 46.8468 35.8068C45.7666 34.7266 44.4005 34.1865 42.7484 34.1865C41.0963 34.1865 39.7301 34.7266 38.6499 35.8068C37.5697 36.887 37.0296 38.2532 37.0296 39.9053C37.0296 41.5574 37.5697 42.9235 38.6499 44.0037C39.7301 45.0839 41.0963 45.624 42.7484 45.624Z" fill="#FEFEFE"/>
<defs>
<linearGradient id="paint0_linear_1151_1156" x1="0" y1="0" x2="100" y2="100" gradientUnits="userSpaceOnUse">
<stop stop-color="#F16239"/>
<stop offset="1" stop-color="#F7B788"/>
</linearGradient>
</defs>
</svg>
