<svg width="100" height="100" viewBox="0 0 100 100" fill="none" xmlns="http://www.w3.org/2000/svg">
<rect width="100" height="100" rx="4" fill="url(#paint0_linear_1153_1161)"/>
<path d="M50 29C48.9267 29 47.83 29.0933 46.7333 29.3267C40.2934 30.5633 35.1601 35.7667 33.9468 42.2067C32.8268 48.2967 35.0668 53.8967 39.1268 57.5133C40.1301 58.4 40.6668 59.6367 40.6668 60.9433V66.3333C40.6668 68.9 42.7668 71 45.3334 71H45.9867C46.8033 72.4 48.2733 73.3333 50 73.3333C51.7267 73.3333 53.22 72.4 54.0133 71H54.6667C57.2333 71 59.3333 68.9 59.3333 66.3333V60.9433C59.3333 59.66 59.8467 58.4 60.8267 57.5367C64.21 54.55 66.3333 50.1867 66.3333 45.3333C66.3333 36.3033 59.03 29 50 29ZM51.1667 54.6667H48.8333V48.6233L44.5634 44.3767L46.22 42.72L50 46.5L53.78 42.72L55.4367 44.3767L51.1667 48.6467V54.6667ZM53.5 66.3333C53.4767 66.3333 53.4533 66.31 53.43 66.31V66.3333H46.57V66.31C46.5467 66.31 46.5233 66.3333 46.5 66.3333C45.8467 66.3333 45.3334 65.82 45.3334 65.1667C45.3334 64.5133 45.8467 64 46.5 64C46.5233 64 46.5467 64.0233 46.57 64.0233V64H53.43V64.0233C53.4533 64.0233 53.4767 64 53.5 64C54.1533 64 54.6667 64.5133 54.6667 65.1667C54.6667 65.82 54.1533 66.3333 53.5 66.3333ZM53.5 61.6667H46.5C45.8467 61.6667 45.3334 61.1533 45.3334 60.5C45.3334 59.8467 45.8467 59.3333 46.5 59.3333H53.5C54.1533 59.3333 54.6667 59.8467 54.6667 60.5C54.6667 61.1533 54.1533 61.6667 53.5 61.6667Z" fill="#FEFEFE"/>
<defs>
<linearGradient id="paint0_linear_1153_1161" x1="0" y1="0" x2="100" y2="100" gradientUnits="userSpaceOnUse">
<stop stop-color="#F16239"/>
<stop offset="1" stop-color="#F7B788"/>
</linearGradient>
</defs>
</svg>
