<svg width="24" height="24" viewBox="0 0 24 24" fill="none" xmlns="http://www.w3.org/2000/svg">
<path d="M12.0003 3C11.5403 3 11.0703 3.04 10.6003 3.14C7.84032 3.67 5.64032 5.9 5.12032 8.66C4.64032 11.27 5.60032 13.67 7.34032 15.22C7.77032 15.6 8.00032 16.13 8.00032 16.69V19C8.00032 20.1 8.90032 21 10.0003 21H10.2803C10.6303 21.6 11.2603 22 12.0003 22C12.7403 22 13.3803 21.6 13.7203 21H14.0003C15.1003 21 16.0003 20.1 16.0003 19V16.69C16.0003 16.14 16.2203 15.6 16.6403 15.23C18.0903 13.95 19.0003 12.08 19.0003 10C19.0003 6.13 15.8703 3 12.0003 3ZM12.5003 14H11.5003V11.41L9.67032 9.59L10.3803 8.88L12.0003 10.5L13.6203 8.88L14.3303 9.59L12.5003 11.42V14ZM13.5003 19C13.4903 19 13.4803 18.99 13.4703 18.99V19H10.5303V18.99C10.5203 18.99 10.5103 19 10.5003 19C10.2203 19 10.0003 18.78 10.0003 18.5C10.0003 18.22 10.2203 18 10.5003 18C10.5103 18 10.5203 18.01 10.5303 18.01V18H13.4703V18.01C13.4803 18.01 13.4903 18 13.5003 18C13.7803 18 14.0003 18.22 14.0003 18.5C14.0003 18.78 13.7803 19 13.5003 19ZM13.5003 17H10.5003C10.2203 17 10.0003 16.78 10.0003 16.5C10.0003 16.22 10.2203 16 10.5003 16H13.5003C13.7803 16 14.0003 16.22 14.0003 16.5C14.0003 16.78 13.7803 17 13.5003 17Z" fill="#1976D2"/>
</svg>
